<svg version="1.1" viewBox="0.000000 0.000000 96.000000 96.000000" xmlns="http://www.w3.org/2000/svg" xmlns:xlink="http://www.w3.org/1999/xlink" id="Icons_Cake" overflow="hidden"><path d=" M 48.000000 15.500000 C 49.700001 15.500000 51.000000 14.200000 51.000000 12.500000 C 51.000000 10.800000 49.700001 6.500000 48.000000 6.500000 C 46.299999 6.500000 48.400002 8.500000 46.000000 10.500000 C 45.900002 10.600000 45.900002 10.600000 45.799999 10.700000 C 45.400002 11.200000 45.000000 11.700000 45.000000 12.500000 C 45.000000 14.200000 46.299999 15.500000 48.000000 15.500000 Z" stroke="none" stroke-width="1.000000" stroke-dasharray="" stroke-dashoffset="1.000000" fill="#095D5E" fill-opacity="1.000000"/><path d=" M 38.000000 20.500000 C 39.700001 20.500000 41.000000 19.200001 41.000000 17.500000 C 41.000000 15.800000 39.700001 11.500000 38.000000 11.500000 C 36.299999 11.500000 38.400002 13.500000 36.000000 15.500000 C 35.900002 15.600000 35.900002 15.600000 35.799999 15.700000 C 35.400002 16.200001 35.000000 16.700001 35.000000 17.500000 C 35.000000 19.200001 36.299999 20.500000 38.000000 20.500000 Z" stroke="none" stroke-width="1.000000" stroke-dasharray="" stroke-dashoffset="1.000000" fill="#095D5E" fill-opacity="1.000000"/><path d=" M 58.000000 20.500000 C 59.700001 20.500000 61.000000 19.200001 61.000000 17.500000 C 61.000000 15.800000 59.700001 11.500000 58.000000 11.500000 C 56.299999 11.500000 58.400002 13.500000 56.000000 15.500000 C 55.900002 15.600000 55.900002 15.600000 55.799999 15.700000 C 55.400002 16.200001 55.000000 16.700001 55.000000 17.500000 C 55.000000 19.200001 56.299999 20.500000 58.000000 20.500000 Z" stroke="none" stroke-width="1.000000" stroke-dasharray="" stroke-dashoffset="1.000000" fill="#095D5E" fill-opacity="1.000000"/><path d=" M 30.000000 57.799999 C 33.099998 54.700001 39.200001 54.700001 42.299999 57.799999 C 43.099998 58.599998 45.299999 58.599998 46.099998 57.799999 C 49.200001 54.700001 55.299999 54.700001 58.400002 57.799999 C 59.200001 58.599998 61.400002 58.599998 62.200001 57.799999 C 65.300003 54.700001 71.400002 54.700001 74.500000 57.799999 C 74.800003 58.099998 75.300003 58.299999 75.900002 58.400002 L 75.900002 42.500000 C 75.900002 39.799999 69.800003 37.500000 60.900002 36.299999 L 60.900002 25.500000 C 60.900002 24.900000 59.599998 24.500000 57.900002 24.500000 C 56.200001 24.500000 54.900002 24.900000 54.900002 25.500000 L 54.900002 35.700001 C 53.599998 35.599998 52.299999 35.599998 50.900002 35.500000 L 50.900002 20.500000 C 50.900002 19.900000 49.599998 19.500000 47.900002 19.500000 C 46.200001 19.500000 44.900002 19.900000 44.900002 20.500000 L 44.900002 35.500000 C 43.500000 35.500000 42.200001 35.599998 40.900002 35.700001 L 40.900002 25.500000 C 40.900002 24.900000 39.599998 24.500000 37.900002 24.500000 C 36.200001 24.500000 34.900002 24.900000 34.900002 25.500000 L 34.900002 36.299999 C 26.000000 37.500000 19.900000 39.799999 19.900000 42.500000 L 19.900000 55.500000 C 22.200001 55.500000 24.500000 56.299999 26.100000 57.799999 C 27.000000 58.599998 29.200001 58.599998 30.000000 57.799999 Z" stroke="none" stroke-width="1.000000" stroke-dasharray="" stroke-dashoffset="1.000000" fill="#095D5E" fill-opacity="1.000000"/><path d=" M 76.000000 64.400002 C 73.900002 64.300003 71.800003 63.500000 70.400002 62.099998 C 69.599998 61.299999 67.400002 61.299999 66.599998 62.099998 C 63.500000 65.199997 57.400002 65.199997 54.299999 62.099998 C 53.500000 61.299999 51.299999 61.299999 50.500000 62.099998 C 47.400002 65.199997 41.299999 65.199997 38.200001 62.099998 C 37.400002 61.299999 35.200001 61.299999 34.400002 62.099998 C 31.299999 65.199997 25.200001 65.199997 22.100000 62.099998 C 21.700001 61.700001 20.900000 61.500000 20.200001 61.500000 L 20.200001 79.500000 L 76.199997 79.500000 L 76.199997 64.400002 Z" stroke="none" stroke-width="1.000000" stroke-dasharray="" stroke-dashoffset="1.000000" fill="#095D5E" fill-opacity="1.000000"/><path d=" M 76.000000 83.500000 L 20.000000 83.500000 C 18.299999 83.500000 17.000000 84.800003 17.000000 86.500000 C 17.000000 88.199997 18.299999 89.500000 20.000000 89.500000 L 76.000000 89.500000 C 77.699997 89.500000 79.000000 88.199997 79.000000 86.500000 C 79.000000 84.800003 77.699997 83.500000 76.000000 83.500000 Z" stroke="none" stroke-width="1.000000" stroke-dasharray="" stroke-dashoffset="1.000000" fill="#095D5E" fill-opacity="1.000000"/></svg>