<svg version="1.1" viewBox="0.000000 0.000000 96.000000 96.000000" xmlns="http://www.w3.org/2000/svg" xmlns:xlink="http://www.w3.org/1999/xlink" id="Icons_BurgerAndDrink" overflow="hidden"><path d=" M 50.299999 62.200001 L 17.500000 62.200001 C 15.600000 62.200001 14.000000 63.799999 14.000000 65.699997 C 14.000000 67.599998 15.600000 69.199997 17.500000 69.199997 L 33.700001 69.199997 L 38.700001 73.900002 L 43.799999 69.199997 L 50.299999 69.199997 C 52.200001 69.199997 53.799999 67.599998 53.799999 65.699997 C 53.799999 63.799999 52.200001 62.200001 50.299999 62.200001 Z" stroke="none" stroke-width="1.000000" stroke-dasharray="" stroke-dashoffset="1.000000" fill="#FFA500" fill-opacity="1.000000"/><path d=" M 38.500000 79.300003 L 31.600000 72.900002 L 13.800000 72.900002 L 13.800000 77.599998 C 13.800000 80.199997 15.900000 82.300003 18.500000 82.300003 L 49.000000 82.300003 C 51.599998 82.300003 53.700001 80.199997 53.700001 77.599998 L 53.700001 72.900002 L 45.500000 72.900002 L 38.500000 79.300003 Z" stroke="none" stroke-width="1.000000" stroke-dasharray="" stroke-dashoffset="1.000000" fill="#FFA500" fill-opacity="1.000000"/><path d=" M 33.700001 43.000000 C 22.700001 43.000000 13.800000 47.200001 13.800000 58.200001 L 53.599998 58.200001 C 53.599998 47.299999 44.700001 43.000000 33.700001 43.000000 Z" stroke="none" stroke-width="1.000000" stroke-dasharray="" stroke-dashoffset="1.000000" fill="#FFA500" fill-opacity="1.000000"/><path d=" M 81.599998 17.200001 C 82.400002 16.400000 82.400002 15.200000 81.599998 14.400000 C 80.800003 13.600000 79.599998 13.600000 78.800003 14.400000 L 68.800003 24.700001 L 68.400002 28.400000 L 40.799999 28.400000 L 40.799999 31.400000 L 41.500000 39.900002 C 51.799999 42.000000 57.700001 48.599998 57.700001 58.400002 L 57.700001 77.699997 C 57.700001 79.400002 57.200001 81.000000 56.299999 82.400002 L 72.900002 82.400002 L 76.900002 31.400000 L 76.900002 28.400000 L 72.699997 28.400000 L 72.900002 26.400000 L 81.599998 17.200001 Z" stroke="none" stroke-width="1.000000" stroke-dasharray="" stroke-dashoffset="1.000000" fill="#FFA500" fill-opacity="1.000000"/></svg>