<svg version="1.1" viewBox="0.000000 0.000000 96.000000 96.000000" xmlns="http://www.w3.org/2000/svg" xmlns:xlink="http://www.w3.org/1999/xlink" id="Icons_GroupOfWomen" overflow="hidden"><path d=" M 32.570000 63.580002 L 34.660000 55.779999 L 34.340000 54.580002 C 34.011398 54.652901 33.676498 54.693100 33.340000 54.700001 C 32.887100 54.714802 32.434799 54.657398 32.000000 54.529999 C 30.789000 54.220901 29.747700 53.448898 29.100000 52.380001 C 28.371401 51.144199 28.159401 49.671101 28.510000 48.279999 L 33.000000 31.680000 L 33.000000 31.620001 L 33.000000 31.570000 C 33.259899 30.806101 33.648899 30.092400 34.150002 29.459999 C 32.479599 28.029600 30.556601 26.923901 28.480000 26.200001 C 24.980000 25.000000 21.180000 25.000000 17.680000 26.200001 C 15.050700 27.071699 12.679500 28.583799 10.780000 30.600000 C 10.382100 31.073700 10.073800 31.615900 9.870000 32.200001 L 5.380000 48.799999 C 4.902970 50.415501 5.825890 52.111900 7.441410 52.588902 C 7.454250 52.592701 7.467110 52.596401 7.480000 52.599998 C 7.738230 52.682301 8.009450 52.716202 8.280000 52.700001 C 9.624490 52.675400 10.799800 51.786900 11.190000 50.500000 L 15.190000 35.900002 L 15.190000 42.799999 L 15.190000 42.799999 L 9.480000 64.099998 L 15.190000 64.099998 L 15.190000 86.800003 L 21.190001 86.800003 L 21.190001 64.099998 L 25.190001 64.099998 L 25.190001 86.699997 L 31.190001 86.699997 L 31.190001 64.099998 L 32.430000 64.099998 Z" stroke="none" stroke-width="1.000000" stroke-dasharray="" stroke-dashoffset="1.000000" fill="#DB76AE" fill-opacity="1.000000"/><path d=" M 90.830002 48.799999 L 86.330002 32.200001 C 86.152603 31.606400 85.845100 31.059900 85.430000 30.600000 C 83.513298 28.604700 81.147598 27.096201 78.529999 26.200001 C 75.029999 25.000000 71.230003 25.000000 67.730003 26.200001 C 65.641296 26.899099 63.711102 28.003500 62.049999 29.450001 C 62.559799 30.082001 62.952599 30.799900 63.209999 31.570000 L 63.209999 31.620001 L 63.209999 31.680000 L 67.720001 48.320000 C 68.412498 50.914700 66.999100 53.606800 64.470001 54.509998 C 64.020897 54.652100 63.550800 54.716400 63.080002 54.700001 C 62.743500 54.693100 62.408600 54.652901 62.080002 54.580002 L 61.759998 55.779999 L 63.849998 63.580002 L 63.990002 64.099998 L 65.239998 64.099998 L 65.239998 86.800003 L 71.239998 86.800003 L 71.239998 64.099998 L 75.239998 64.099998 L 75.239998 86.699997 L 81.239998 86.699997 L 81.239998 64.099998 L 86.940002 64.099998 L 81.239998 42.810001 L 81.239998 35.900002 L 85.239998 50.500000 C 85.626297 51.785301 86.798103 52.674301 88.139999 52.700001 C 88.410599 52.716202 88.681801 52.682301 88.940002 52.599998 C 90.440201 51.993401 91.251404 50.362301 90.830002 48.799999 Z" stroke="none" stroke-width="1.000000" stroke-dasharray="" stroke-dashoffset="1.000000" fill="#DB76AE" fill-opacity="1.000000"/><path d=" M 65.809998 48.799999 L 61.310001 32.200001 C 61.132599 31.606400 60.825100 31.059900 60.410000 30.600000 C 58.493301 28.604700 56.127602 27.096201 53.509998 26.200001 C 50.009998 25.000000 46.209999 25.000000 42.709999 26.200001 C 40.080700 27.071699 37.709499 28.583799 35.810001 30.600000 C 35.408501 31.071199 35.099800 31.614100 34.900002 32.200001 L 30.400000 48.799999 C 29.923000 50.415501 30.845900 52.111900 32.461399 52.588902 C 32.474201 52.592701 32.487099 52.596401 32.500000 52.599998 C 32.758202 52.682301 33.029400 52.716202 33.299999 52.700001 C 34.644501 52.675400 35.819801 51.786900 36.209999 50.500000 L 40.209999 35.900002 L 40.209999 42.799999 L 40.209999 42.799999 L 34.500000 64.099998 L 40.209999 64.099998 L 40.209999 86.800003 L 46.209999 86.800003 L 46.209999 64.099998 L 50.209999 64.099998 L 50.209999 86.699997 L 56.209999 86.699997 L 56.209999 64.099998 L 61.910000 64.099998 L 56.209999 42.810001 L 56.209999 35.900002 L 60.209999 50.500000 C 60.596298 51.785301 61.768101 52.674301 63.110001 52.700001 C 63.380600 52.716202 63.651798 52.682301 63.910000 52.599998 C 65.414101 51.997101 66.230202 50.365002 65.809998 48.799999 Z" stroke="none" stroke-width="1.000000" stroke-dasharray="" stroke-dashoffset="1.000000" fill="#DB76AE" fill-opacity="1.000000"/><path d=" M 80.000000 16.200001 C 80.000000 20.066000 76.865997 23.200001 73.000000 23.200001 C 69.134003 23.200001 66.000000 20.066000 66.000000 16.200001 C 66.000000 12.334000 69.134003 9.200000 73.000000 9.200000 C 76.865997 9.200000 80.000000 12.334000 80.000000 16.200001 Z" stroke="none" stroke-width="1.000000" stroke-dasharray="" stroke-dashoffset="1.000000" fill="#DB76AE" fill-opacity="1.000000"/><path d=" M 30.000000 16.200001 C 30.000000 20.066000 26.865999 23.200001 23.000000 23.200001 C 19.134001 23.200001 16.000000 20.066000 16.000000 16.200001 C 16.000000 12.334000 19.134001 9.200000 23.000000 9.200000 C 26.865999 9.200000 30.000000 12.334000 30.000000 16.200001 Z" stroke="none" stroke-width="1.000000" stroke-dasharray="" stroke-dashoffset="1.000000" fill="#DB76AE" fill-opacity="1.000000"/><path d=" M 55.000000 16.200001 C 55.000000 20.066000 51.866001 23.200001 48.000000 23.200001 C 44.133999 23.200001 41.000000 20.066000 41.000000 16.200001 C 41.000000 12.334000 44.133999 9.200000 48.000000 9.200000 C 51.866001 9.200000 55.000000 12.334000 55.000000 16.200001 Z" stroke="none" stroke-width="1.000000" stroke-dasharray="" stroke-dashoffset="1.000000" fill="#DB76AE" fill-opacity="1.000000"/></svg>